<svg width="32" height="32" viewBox="0 0 32 32" fill="none" xmlns="http://www.w3.org/2000/svg">
<rect width="32" height="32" fill="#424242"/>
<circle cx="16" cy="16" r="13.75" stroke="white" stroke-width="0.5"/>
<path d="M10.068 15.332H10.599C11.043 15.332 11.364 15.194 11.562 14.918L14.865 10.499C15.021 10.289 15.192 10.145 15.378 10.067C15.564 9.983 15.792 9.941 16.062 9.941H18.402L14.244 15.296C13.974 15.644 13.695 15.893 13.407 16.043C13.617 16.127 13.806 16.238 13.974 16.376C14.142 16.508 14.304 16.685 14.46 16.907L18.726 23H16.323C16.167 23 16.032 22.988 15.918 22.964C15.81 22.94 15.714 22.907 15.63 22.865C15.546 22.823 15.474 22.772 15.414 22.712C15.354 22.646 15.297 22.571 15.243 22.487L11.886 17.789C11.772 17.627 11.637 17.513 11.481 17.447C11.325 17.375 11.106 17.339 10.824 17.339H10.068V23H7.368V9.941H10.068V15.332Z" fill="white"/>
<path d="M20.381 20.93C20.813 20.93 21.167 20.879 21.443 20.777C21.725 20.669 21.95 20.528 22.118 20.354C22.286 20.18 22.403 19.982 22.469 19.76C22.535 19.532 22.568 19.298 22.568 19.058C22.568 18.794 22.529 18.557 22.451 18.347C22.373 18.137 22.247 17.96 22.073 17.816C21.899 17.666 21.671 17.552 21.389 17.474C21.113 17.396 20.771 17.357 20.363 17.357H18.068V20.93H20.381ZM18.068 11.993V15.521H19.841C20.219 15.521 20.555 15.491 20.849 15.431C21.143 15.365 21.389 15.263 21.587 15.125C21.785 14.987 21.935 14.807 22.037 14.585C22.145 14.357 22.199 14.084 22.199 13.766C22.199 13.442 22.154 13.166 22.064 12.938C21.98 12.71 21.848 12.527 21.668 12.389C21.488 12.251 21.26 12.152 20.984 12.092C20.708 12.026 20.381 11.993 20.003 11.993H18.068ZM20.003 9.941C20.879 9.941 21.626 10.025 22.244 10.193C22.868 10.355 23.375 10.589 23.765 10.895C24.161 11.195 24.449 11.561 24.629 11.993C24.809 12.425 24.899 12.908 24.899 13.442C24.899 13.742 24.854 14.03 24.764 14.306C24.68 14.582 24.545 14.843 24.359 15.089C24.179 15.329 23.945 15.548 23.657 15.746C23.369 15.944 23.027 16.112 22.631 16.25C23.519 16.46 24.176 16.802 24.602 17.276C25.028 17.75 25.241 18.365 25.241 19.121C25.241 19.673 25.133 20.186 24.917 20.66C24.707 21.134 24.398 21.545 23.99 21.893C23.582 22.241 23.078 22.514 22.478 22.712C21.884 22.904 21.2 23 20.426 23H15.368V9.941H20.003Z" fill="white"/>
<path d="M15.5 23V18L18 23H15.5Z" fill="#424242" stroke="#424242" stroke-width="0.3"/>
<path d="M15.5 14V10H18L15.5 14Z" fill="#424242" stroke="#424242" stroke-width="0.3"/>
</svg>
